<svg width="43" height="46" viewBox="0 0 43 46" fill="none" xmlns="http://www.w3.org/2000/svg">
<g filter="url(#filter0_dddddd_488_219)">
<path fill-rule="evenodd" clip-rule="evenodd" d="M21.3381 0L22.637 1.23445C25.9109 4.34603 30.3266 6.25165 35.19 6.25165C35.2674 6.25165 35.3447 6.25116 35.4219 6.2502L36.8071 6.23294L37.2398 7.55361C37.953 9.73078 38.3381 12.0552 38.3381 14.4661C38.3381 24.7736 31.3133 33.4298 21.809 35.8848L21.3381 36.0064L20.8673 35.8848C11.363 33.4298 4.33813 24.7736 4.33813 14.4661C4.33813 12.0552 4.72323 9.73078 5.4365 7.55361L5.86917 6.23294L7.25435 6.2502C7.33154 6.25116 7.40885 6.25165 7.48628 6.25165C12.3496 6.25165 16.7654 4.34603 20.0393 1.23445L21.3381 0ZM8.65859 10.0121C8.30432 11.4364 8.11591 12.928 8.11591 14.4661C8.11591 22.8309 13.7025 29.8908 21.3381 32.0848C28.9738 29.8908 34.5604 22.8309 34.5604 14.4661C34.5604 12.928 34.3719 11.4364 34.0177 10.0121C29.2264 9.75984 24.8384 7.97052 21.3381 5.12858C17.8378 7.97052 13.4499 9.75984 8.65859 10.0121Z" fill="#E4E4E4"/>
</g>
<defs>
<filter id="filter0_dddddd_488_219" x="1.71661e-05" y="0" width="42.6762" height="45.7671" filterUnits="userSpaceOnUse" color-interpolation-filters="sRGB">
<feFlood flood-opacity="0" result="BackgroundImageFix"/>
<feColorMatrix in="SourceAlpha" type="matrix" values="0 0 0 0 0 0 0 0 0 0 0 0 0 0 0 0 0 0 127 0" result="hardAlpha"/>
<feOffset dy="0.150059"/>
<feGaussianBlur stdDeviation="0.0600234"/>
<feColorMatrix type="matrix" values="0 0 0 0 0 0 0 0 0 0 0 0 0 0 0 0 0 0 0.0168687 0"/>
<feBlend mode="normal" in2="BackgroundImageFix" result="effect1_dropShadow_488_219"/>
<feColorMatrix in="SourceAlpha" type="matrix" values="0 0 0 0 0 0 0 0 0 0 0 0 0 0 0 0 0 0 127 0" result="hardAlpha"/>
<feOffset dy="0.360612"/>
<feGaussianBlur stdDeviation="0.144245"/>
<feColorMatrix type="matrix" values="0 0 0 0 0 0 0 0 0 0 0 0 0 0 0 0 0 0 0.0242336 0"/>
<feBlend mode="normal" in2="effect1_dropShadow_488_219" result="effect2_dropShadow_488_219"/>
<feColorMatrix in="SourceAlpha" type="matrix" values="0 0 0 0 0 0 0 0 0 0 0 0 0 0 0 0 0 0 127 0" result="hardAlpha"/>
<feOffset dy="0.679"/>
<feGaussianBlur stdDeviation="0.2716"/>
<feColorMatrix type="matrix" values="0 0 0 0 0 0 0 0 0 0 0 0 0 0 0 0 0 0 0.03 0"/>
<feBlend mode="normal" in2="effect2_dropShadow_488_219" result="effect3_dropShadow_488_219"/>
<feColorMatrix in="SourceAlpha" type="matrix" values="0 0 0 0 0 0 0 0 0 0 0 0 0 0 0 0 0 0 127 0" result="hardAlpha"/>
<feOffset dy="1.21122"/>
<feGaussianBlur stdDeviation="0.484488"/>
<feColorMatrix type="matrix" values="0 0 0 0 0 0 0 0 0 0 0 0 0 0 0 0 0 0 0.0357664 0"/>
<feBlend mode="normal" in2="effect3_dropShadow_488_219" result="effect4_dropShadow_488_219"/>
<feColorMatrix in="SourceAlpha" type="matrix" values="0 0 0 0 0 0 0 0 0 0 0 0 0 0 0 0 0 0 127 0" result="hardAlpha"/>
<feOffset dy="2.26545"/>
<feGaussianBlur stdDeviation="0.906181"/>
<feColorMatrix type="matrix" values="0 0 0 0 0 0 0 0 0 0 0 0 0 0 0 0 0 0 0.0431313 0"/>
<feBlend mode="normal" in2="effect4_dropShadow_488_219" result="effect5_dropShadow_488_219"/>
<feColorMatrix in="SourceAlpha" type="matrix" values="0 0 0 0 0 0 0 0 0 0 0 0 0 0 0 0 0 0 127 0" result="hardAlpha"/>
<feOffset dy="5.42265"/>
<feGaussianBlur stdDeviation="2.16906"/>
<feColorMatrix type="matrix" values="0 0 0 0 0 0 0 0 0 0 0 0 0 0 0 0 0 0 0.06 0"/>
<feBlend mode="normal" in2="effect5_dropShadow_488_219" result="effect6_dropShadow_488_219"/>
<feBlend mode="normal" in="SourceGraphic" in2="effect6_dropShadow_488_219" result="shape"/>
</filter>
</defs>
</svg>
