<svg width="36" height="36" viewBox="0 0 36 36" fill="none" xmlns="http://www.w3.org/2000/svg">
<path fill-rule="evenodd" clip-rule="evenodd" d="M11.2502 1.50003C12.0787 1.50003 12.7502 2.1716 12.7502 3.00003V4.50003H23.2502V3.00003C23.2502 2.1716 23.9218 1.50003 24.7502 1.50003C25.5787 1.50003 26.2502 2.1716 26.2502 3.00003V4.53706C30.0402 4.91336 33.0002 8.11102 33.0002 12V25.5C33.0002 29.6422 29.6424 33 25.5002 33H10.5002C6.35811 33 3.00024 29.6422 3.00024 25.5V12C3.00024 8.11102 5.96025 4.91336 9.75024 4.53706V3.00003C9.75024 2.1716 10.4218 1.50003 11.2502 1.50003ZM6.2563 10.5H29.7442C29.1264 8.75224 27.4596 7.50003 25.5002 7.50003H10.5002C8.54092 7.50003 6.87406 8.75224 6.2563 10.5ZM30.0002 13.5H6.00024V25.5C6.00024 27.9853 8.01496 30 10.5002 30H25.5002C27.9855 30 30.0002 27.9853 30.0002 25.5V13.5Z" fill="#E4E4E4"/>
</svg>
