<svg width="36" height="36" viewBox="0 0 36 36" fill="none" xmlns="http://www.w3.org/2000/svg">
<path fill-rule="evenodd" clip-rule="evenodd" d="M17.9997 6C14.686 6 11.9997 8.68629 11.9997 12C11.9997 15.3137 14.686 18 17.9997 18C21.3135 18 23.9997 15.3137 23.9997 12C23.9997 8.68629 21.3134 6 17.9997 6ZM23.4612 19.1541C25.6122 17.5095 26.9997 14.9168 26.9997 12C26.9997 7.02944 22.9703 3 17.9997 3C13.0292 3 8.99974 7.02944 8.99974 12C8.99974 14.9168 10.3873 17.5095 12.5383 19.1541C11.03 19.8212 9.6425 20.7654 8.4538 21.9541C7.53591 22.872 6.76376 23.9085 6.1524 25.0277C5.02423 27.0929 5.48431 29.1986 6.75483 30.6876C7.97794 32.121 9.93728 33 11.9997 33H23.9997C26.0622 33 28.0215 32.121 29.2446 30.6876C30.5152 29.1986 30.9753 27.0929 29.8471 25.0277C29.2357 23.9085 28.4636 22.872 27.5457 21.9541C26.357 20.7654 24.9694 19.8212 23.4612 19.1541ZM17.9997 21C15.215 21 12.5443 22.1062 10.5751 24.0754C9.86112 24.7894 9.26065 25.5955 8.78518 26.4659C8.32473 27.3088 8.47326 28.0797 9.03695 28.7403C9.64805 29.4564 10.7485 30 11.9997 30H23.9997C25.251 30 26.3514 29.4564 26.9625 28.7403C27.5262 28.0797 27.6748 27.3088 27.2143 26.4659C26.7388 25.5955 26.1384 24.7894 25.4244 24.0754C23.4552 22.1062 20.7845 21 17.9997 21Z" fill="#E4E4E4"/>
</svg>
