<svg width="166" height="57" viewBox="0 0 166 57" fill="none" xmlns="http://www.w3.org/2000/svg">
<rect x="42.5541" y="43.2911" width="123.126" height="5.04615" rx="2.52307" fill="url(#paint0_linear_446_345)"/>
<path d="M0 14.4694H23.1089V17.3837H17.6908C18.7991 18.4509 19.3327 19.8464 19.3327 21.4472C19.3327 23.4174 18.5117 25.0182 16.952 26.2086C19.4147 28.384 20.4819 30.5594 20.4819 33.1043C20.4819 37.4551 17.4035 40 13.0526 40C7.59351 40 4.26878 36.7984 1.19033 27.3578L4.18669 26.1265C6.73154 34.0894 8.94802 36.9626 12.6422 36.9626C15.187 36.9626 16.993 35.6081 16.993 32.899C16.993 30.6826 16.0079 28.9997 14.1198 27.6041C12.8884 28.0146 11.4518 28.2608 9.76894 28.384L9.11221 25.3876C13.9967 24.9361 16.0079 23.951 16.0079 21.2009C16.0079 19.6001 15.146 18.2456 13.7914 17.3837H0V14.4694ZM22.4871 14.4694H45.8423V17.3837H41.6145V40H38.2898V27.7683H30.8605V29.9848C30.8605 31.5035 30.0396 32.2834 28.7671 32.2834C26.7559 32.2834 24.0058 29.246 24.0058 26.9474C24.0058 25.716 24.6625 24.854 26.5096 24.854H38.2898V17.3837H22.4871V14.4694ZM75.4236 19.2307C77.2296 19.2307 78.7757 19.5865 80.0618 20.2979C81.3479 20.982 82.333 21.9945 83.0171 23.3353C83.7286 24.6762 84.0843 26.3043 84.0843 28.2198V40H79.1177V29.0818C79.1177 25.2782 77.4212 23.3764 74.028 23.3764C72.1946 23.3764 70.7854 23.91 69.8003 24.9772C68.8426 26.0444 68.3637 27.5631 68.3637 29.5333V40H63.3971V29.0818C63.3971 25.2782 61.6869 23.3764 58.2664 23.3764C56.4603 23.3764 55.0648 23.91 54.0797 24.9772C53.1219 26.0444 52.6431 27.5631 52.6431 29.5333V40H47.6765V19.8464H52.6431V22.3913C54.2575 20.2842 56.6656 19.2307 59.8672 19.2307C61.7006 19.2307 63.274 19.5865 64.5875 20.2979C65.9283 21.0094 66.9134 22.0355 67.5428 23.3764C68.3363 21.9808 69.3898 20.941 70.7033 20.2569C72.0168 19.5728 73.5902 19.2307 75.4236 19.2307ZM105.427 35.2387C105.756 34.965 106.029 34.6367 106.248 34.2536C106.467 33.8705 106.618 33.4737 106.7 33.0632H111.666C111.393 34.9513 110.572 36.5111 109.203 37.7425C108.136 38.7276 106.809 39.4527 105.222 39.9179C103.635 40.3831 101.87 40.6157 99.9271 40.6157C97.0812 40.6157 94.6595 40.1095 92.6619 39.097C90.6917 38.0572 89.2825 36.5795 88.4342 34.664C87.8048 33.3779 87.4901 31.8045 87.4901 29.9437C87.4901 28.1651 87.8048 26.5643 88.4342 25.1414C89.2825 23.2532 90.6781 21.8029 92.6209 20.7905C94.5637 19.7506 96.9034 19.2307 99.6398 19.2307C102.376 19.2307 104.688 19.7643 106.577 20.8315C108.492 21.8714 109.874 23.3353 110.722 25.2234C111.078 26.1265 111.338 27.0705 111.502 28.0556C111.694 29.0407 111.789 30.1353 111.789 31.3393H92.4978C92.5798 32.2149 92.7714 32.9538 93.0724 33.5558C93.565 34.6503 94.4132 35.4713 95.6173 36.0185C96.8213 36.5658 98.2716 36.8395 99.9681 36.8395C101.145 36.8395 102.198 36.7163 103.129 36.47C104.086 36.1964 104.853 35.7859 105.427 35.2387ZM99.6398 23.048C97.9979 23.048 96.6024 23.3353 95.4531 23.91C94.3311 24.4573 93.5239 25.2919 93.0314 26.4138C92.8124 26.9337 92.6619 27.3989 92.5798 27.8093H106.741C106.686 27.3715 106.535 26.8653 106.289 26.2906C105.797 25.1961 104.976 24.3888 103.826 23.8689C102.677 23.3217 101.282 23.048 99.6398 23.048ZM124.121 40.6567C121.768 40.6567 119.784 40.3147 118.169 39.6306C116.555 38.9191 115.419 37.8382 114.763 36.388C114.38 35.5123 114.161 34.4451 114.106 33.1864H119.072C119.072 33.8978 119.182 34.4862 119.401 34.9513C119.729 35.6628 120.304 36.1964 121.125 36.5521C121.973 36.9079 123.027 37.0857 124.285 37.0857C125.462 37.0857 126.447 36.9626 127.241 36.7163C128.034 36.4427 128.554 36.0459 128.8 35.526C128.937 35.2523 129.006 34.9513 129.006 34.623C129.006 34.322 128.937 34.0073 128.8 33.6789C128.636 33.3232 128.321 33.0359 127.856 32.817C127.391 32.5707 126.721 32.3518 125.845 32.1602C124.997 31.9687 123.765 31.7361 122.151 31.4624C120.372 31.1614 118.895 30.7236 117.718 30.149C116.569 29.5743 115.761 28.726 115.296 27.6041C115.023 26.9747 114.886 26.2359 114.886 25.3876C114.886 24.5941 115.036 23.8279 115.337 23.0891C115.912 21.8303 116.979 20.8726 118.539 20.2158C120.126 19.5591 121.959 19.2307 124.039 19.2307C126.201 19.2307 128.048 19.5728 129.58 20.2569C131.14 20.9136 132.235 21.9261 132.864 23.2943C133.22 24.0331 133.398 24.9361 133.398 26.0033H128.595C128.595 25.5108 128.499 25.0319 128.308 24.5667C127.979 23.91 127.432 23.4311 126.666 23.1301C125.927 22.8017 125.024 22.6376 123.957 22.6376C121.768 22.6376 120.468 23.1164 120.058 24.0742C119.948 24.2931 119.893 24.5667 119.893 24.8951C119.893 25.2234 119.948 25.4834 120.058 25.675C120.249 26.058 120.577 26.3727 121.043 26.619C121.535 26.8653 122.069 27.0568 122.643 27.1937C123.218 27.3305 124.039 27.4947 125.106 27.6862C125.325 27.7136 125.722 27.782 126.297 27.8914C128.321 28.3019 129.936 28.8081 131.14 29.4101C132.344 30.0121 133.206 30.8604 133.726 31.955C134 32.5844 134.136 33.3232 134.136 34.1715C134.136 35.0745 133.972 35.8954 133.644 36.6342C133.042 38.0024 131.879 39.0149 130.155 39.6716C128.431 40.3284 126.42 40.6567 124.121 40.6567ZM157.736 23.7868C158.283 25.1003 158.556 26.619 158.556 28.3429V40H153.59V37.5783C151.811 39.6032 149.047 40.6157 145.299 40.6157C143.219 40.6157 141.468 40.3147 140.045 39.7127C138.649 39.0833 137.691 38.1666 137.171 36.9626C136.843 36.2238 136.679 35.3755 136.679 34.4177C136.679 33.4053 136.843 32.5296 137.171 31.7908C137.883 30.2037 139.196 29.1228 141.112 28.5482C143.055 27.9735 145.518 27.6862 148.5 27.6862H153.549V27.3168C153.549 26.9063 153.521 26.5506 153.467 26.2496C153.412 25.9486 153.316 25.6339 153.179 25.3055C152.468 23.7732 150.717 23.007 147.926 23.007C145.162 23.007 143.465 23.7184 142.836 25.1414C142.644 25.4971 142.549 25.8665 142.549 26.2496H137.541C137.623 25.1824 137.815 24.2931 138.116 23.5816C138.8 22.0766 139.99 20.982 141.687 20.2979C143.383 19.5865 145.449 19.2307 147.884 19.2307C150.457 19.2307 152.564 19.6001 154.206 20.339C155.875 21.0504 157.051 22.1997 157.736 23.7868ZM153.138 33.5968C153.439 32.9401 153.59 32.1876 153.59 31.3393V31.093H148.705C146.872 31.093 145.381 31.2162 144.231 31.4624C143.109 31.7087 142.371 32.1876 142.015 32.899C141.878 33.2274 141.81 33.5695 141.81 33.9252C141.81 34.3357 141.864 34.6914 141.974 34.9924C142.275 35.6491 142.836 36.1143 143.657 36.388C144.478 36.6616 145.435 36.7984 146.53 36.7984C148.117 36.7984 149.499 36.5248 150.676 35.9775C151.852 35.4029 152.673 34.6093 153.138 33.5968Z" fill="white"/>
<defs>
<linearGradient id="paint0_linear_446_345" x1="42.5541" y1="45.8141" x2="165.68" y2="45.8141" gradientUnits="userSpaceOnUse">
<stop stop-color="#BFD4FD"/>
<stop offset="1" stop-color="#2B71FA"/>
</linearGradient>
</defs>
</svg>
